<svg width="13" height="13" viewBox="0 0 13 13" fill="none" xmlns="http://www.w3.org/2000/svg">
<path d="M6.64 12.112C5.79733 12.112 5.01867 11.968 4.304 11.68C3.58933 11.392 2.96533 10.9867 2.432 10.464C1.90933 9.94133 1.49867 9.328 1.2 8.624C0.912 7.92 0.768 7.152 0.768 6.32C0.768 5.49867 0.912 4.736 1.2 4.032C1.49867 3.328 1.90933 2.72 2.432 2.208C2.96533 1.68533 3.58933 1.28 4.304 0.992C5.01867 0.704 5.79733 0.559999 6.64 0.559999C7.48267 0.559999 8.26133 0.704 8.976 0.992C9.70133 1.28 10.3307 1.68533 10.864 2.208C11.3973 2.72 11.808 3.328 12.096 4.032C12.3947 4.736 12.544 5.49867 12.544 6.32C12.544 7.152 12.3947 7.92 12.096 8.624C11.808 9.328 11.3973 9.94133 10.864 10.464C10.3307 10.9867 9.70133 11.392 8.976 11.68C8.26133 11.968 7.48267 12.112 6.64 12.112ZM6.64 11.52C7.38667 11.52 8.07467 11.3973 8.704 11.152C9.344 10.896 9.904 10.5387 10.384 10.08C10.864 9.62133 11.2373 9.07733 11.504 8.448C11.7813 7.81867 11.92 7.12 11.92 6.352C11.92 5.616 11.7867 4.93333 11.52 4.304C11.2533 3.664 10.88 3.10933 10.4 2.64C9.93067 2.17067 9.376 1.808 8.736 1.552C8.096 1.28533 7.39733 1.152 6.64 1.152C5.89333 1.152 5.2 1.28533 4.56 1.552C3.92 1.808 3.36 2.17067 2.88 2.64C2.41067 3.10933 2.04267 3.65867 1.776 4.288C1.52 4.90667 1.392 5.58933 1.392 6.336C1.392 7.072 1.52 7.75467 1.776 8.384C2.04267 9.00267 2.41067 9.552 2.88 10.032C3.36 10.5013 3.92 10.8693 4.56 11.136C5.2 11.392 5.89333 11.52 6.64 11.52ZM6.768 10.032C6.27733 10.032 5.808 9.94667 5.36 9.776C4.912 9.59467 4.512 9.344 4.16 9.024C3.81867 8.69333 3.54133 8.304 3.328 7.856C3.12533 7.39733 3.024 6.88533 3.024 6.32C3.024 5.872 3.09867 5.42933 3.248 4.992C3.39733 4.544 3.62133 4.13867 3.92 3.776C4.21867 3.41333 4.59733 3.12533 5.056 2.912C5.51467 2.688 6.05333 2.576 6.672 2.576C7.376 2.576 8 2.73067 8.544 3.04C9.09867 3.33867 9.49867 3.776 9.744 4.352L8.688 4.688C8.54933 4.368 8.35733 4.128 8.112 3.968C7.87733 3.79733 7.632 3.68533 7.376 3.632C7.12 3.568 6.88533 3.536 6.672 3.536C6.24533 3.536 5.872 3.616 5.552 3.776C5.232 3.936 4.96533 4.15467 4.752 4.432C4.54933 4.69867 4.39467 4.99733 4.288 5.328C4.192 5.648 4.144 5.97867 4.144 6.32C4.144 6.768 4.21867 7.16267 4.368 7.504C4.528 7.84533 4.73067 8.13333 4.976 8.368C5.232 8.60267 5.50933 8.784 5.808 8.912C6.11733 9.02933 6.416 9.088 6.704 9.088C6.97067 9.088 7.24267 9.04 7.52 8.944C7.79733 8.83733 8.05333 8.69333 8.288 8.512C8.52267 8.33067 8.69333 8.11733 8.8 7.872L9.856 8.176C9.74933 8.432 9.55733 8.704 9.28 8.992C9.00267 9.28 8.65067 9.52533 8.224 9.728C7.79733 9.93067 7.312 10.032 6.768 10.032Z" fill="white"/>
</svg>
