<svg width="15" height="13" viewBox="0 0 15 13" fill="none" xmlns="http://www.w3.org/2000/svg">
<path d="M3.75 0C2.71875 0 1.8 0.43125 1.10625 1.10625C0.43125 1.78125 0 2.7 0 3.75C0 4.78125 0.43125 5.7 1.10625 6.39375L7.5 12.7875L13.8937 6.39375C14.5687 5.71875 15 4.8 15 3.75C15 2.71875 14.5687 1.8 13.8937 1.10625C13.2188 0.43125 12.3 0 11.25 0C10.2188 0 9.3 0.43125 8.60625 1.10625C7.93125 1.78125 7.5 2.7 7.5 3.75C7.5 2.71875 7.06875 1.8 6.39375 1.10625C5.71875 0.43125 4.8 0 3.75 0Z" fill="white"/>
</svg>
